<svg xmlns="http://www.w3.org/2000/svg" width="14" height="17" viewBox="0 0 14 17">
    <g fill="none" fill-rule="evenodd">
        <path stroke="#0B060A" d="M4.137 2.945S4.053.25 6.544.25c0 0 2.071.058 2.071 2.51" transform="translate(1 1)"/>
        <path stroke="#150B0E" d="M11.354 14.73H1.398c-.631 0-1.148-.496-1.148-1.103L.3 4.255c0-.607.516-1.103 1.148-1.103h9.859c.63 0 1.148.496 1.148 1.103l.048 9.372c0 .607-.516 1.103-1.148 1.103z" transform="translate(1 1)"/>
        <path stroke="#0B060A" stroke-linecap="round" d="M4.137 4.881L4.137 3.175M8.615 4.881L8.615 3.175" transform="translate(1 1)"/>
    </g>
</svg>
