<svg xmlns="http://www.w3.org/2000/svg" xmlns:xlink="http://www.w3.org/1999/xlink" width="16" height="15" viewBox="0 0 16 15">
    <defs>
        <path id="6nxrz3hc5a" d="M4.084.304C2.001.304.311 1.818.311 3.969c0 .333.143 1.534.943 2.748 1.955 2.954 5.793 6.412 6.271 6.412.549 0 4.295-3.478 6.16-6.412.634-.997 1.054-2.459 1.054-2.748 0-2.15-1.688-3.665-3.773-3.665-1.532 0-2.85.944-3.44 2.3-.59-1.356-1.908-2.3-3.442-2.3z"/>
    </defs>
    <g fill="none" fill-rule="evenodd" transform="translate(.396 .403)">
        <mask id="25dm7wnerb" fill="#fff">
            <use xlink:href="#6nxrz3hc5a"/>
        </mask>
        <use fill="#F27370" stroke="#F27370" stroke-width="1.012" xlink:href="#6nxrz3hc5a"/>
        <path fill="#FFF" d="M6.644 8.448h1.55c.364 0 .641-.059.834-.176.192-.118.289-.34.289-.667 0-.534-.416-.8-1.249-.8H6.644v1.643zm0-2.58H7.9c.714 0 1.072-.25 1.072-.748 0-.286-.086-.493-.26-.619-.173-.126-.44-.19-.803-.19H6.644V5.87zm1.575 3.417H5.655V3.273h2.28c.396 0 .738.048 1.026.146.287.097.502.23.64.396.27.31.404.659.404 1.05 0 .47-.146.819-.436 1.048-.106.081-.179.13-.219.15-.038.02-.108.053-.208.1.363.08.652.247.867.503.215.255.322.572.322.95 0 .418-.14.788-.419 1.11-.33.371-.893.559-1.693.559z" mask="url(#25dm7wnerb)"/>
    </g>
</svg>
