<svg xmlns="http://www.w3.org/2000/svg" width="14" height="18" viewBox="0 0 14 18">
    <g fill="none" fill-rule="evenodd">
        <path fill="#E95294" d="M83.377 260c-.026-.01-.05-.029-.066-.055-.037-.06-.027-.137.024-.184l1.402-1.302-.568-.268c-.043-.02-.074-.063-.081-.111-.007-.05.012-.098.048-.13l1.546-1.337c.042-.037.103-.045.153-.021l1.183.558c.047.021.078.066.082.118.004.052-.02.102-.06.132l-1.252.874.583.275c.052.024.084.077.083.134-.001.058-.036.109-.09.13l-2.878 1.188c-.036.015-.075.014-.11 0" transform="translate(-77 -249)"/>
        <path stroke="#E95294" stroke-linecap="round" stroke-linejoin="round" stroke-width=".72" d="M82.9 255.97l1.381-2.439c.052-.09.162-.128.256-.087l5.381 2.343c.096.041.144.148.115.248l-2.208 7.398c-.017.056-.056.102-.108.127-.028.013-.057.02-.087.02-.026 0-.053-.006-.079-.017l-6.994-2.998c-.053-.023-.094-.067-.112-.123-.02-.055-.014-.116.016-.167l1.475-2.604M85.792 255.394L84.877 254.995M88.586 256.661L87.671 256.263" transform="translate(-77 -249)"/>
        <path stroke="#E95294" stroke-linecap="round" stroke-linejoin="round" stroke-width=".72" d="M85.384 254.868l1.05-2.461c.1-.236.347-.38.694-.403.301-.021.654.049.993.197.34.148.632.359.823.593.221.272.288.551.188.787l-1.05 2.462M82.956 257.371L79.946 257.371M79.742 259.238L77.422 259.238M80.543 261.797L78.137 261.797" transform="translate(-77 -249)"/>
    </g>
</svg>
